<svg width="24" height="24" viewBox="0 0 24 24" fill="none" xmlns="http://www.w3.org/2000/svg">
<rect width="24" height="24" rx="4" fill="#B3B3C6"/>
<rect width="24" height="24" rx="4" fill="#16161F"/>
<path d="M12.0984 10.64C14.1944 10.64 15.8424 12.352 15.8424 14.432C15.8424 16.576 14.1624 18.192 12.0504 18.192C10.6904 18.192 9.15438 17.504 8.40238 16.368C8.35438 16.288 8.24238 16.144 8.16238 16L9.41038 15.328L9.58637 15.6C10.0504 16.256 11.0744 16.768 12.0504 16.768C13.4264 16.768 14.4664 15.744 14.4664 14.432C14.4664 13.04 13.3784 12.048 12.0504 12.048C11.2984 12.048 10.4504 12.352 9.92238 12.848L8.93038 12.272V6.4H15.0264V7.76H10.3224V11.056C10.8504 10.784 11.4424 10.64 12.0984 10.64Z" fill="white"/>
</svg>
