<svg width="25" height="24" viewBox="0 0 25 24" fill="none" xmlns="http://www.w3.org/2000/svg">
<g clip-path="url(#clip0_1850_5287)">
<path d="M17.8445 12.4754C17.8751 15.7442 20.7314 16.8319 20.7631 16.8458C20.7389 16.9225 20.3067 18.396 19.2582 19.9179C18.3519 21.2338 17.4112 22.5448 15.9293 22.5719C14.4733 22.5986 14.0051 21.7143 12.3404 21.7143C10.6762 21.7143 10.156 22.5448 8.7777 22.5986C7.34734 22.6523 6.25814 21.1757 5.34426 19.8647C3.47684 17.183 2.04975 12.2868 3.96597 8.98186C4.91791 7.34059 6.6191 6.30127 8.46559 6.27462C9.87016 6.24801 11.1959 7.21324 12.0545 7.21324C12.9126 7.21324 14.5237 6.05247 16.2173 6.22294C16.9264 6.25225 18.9166 6.50743 20.1946 8.36553C20.0916 8.42893 17.8198 9.74259 17.8445 12.4754V12.4754ZM15.108 4.44876C15.8674 3.53572 16.3785 2.26468 16.2391 1C15.1445 1.0437 13.8209 1.72452 13.0358 2.63706C12.3321 3.44516 11.7159 4.73857 11.8822 5.97822C13.1022 6.07198 14.3486 5.36239 15.108 4.44877" fill="#1C1C1C"/>
</g>
<defs>
<clipPath id="clip0_1850_5287">
<rect width="18" height="22" fill="white" transform="translate(3.05664 1)"/>
</clipPath>
</defs>
</svg>
