<svg width="25" height="24" viewBox="0 0 25 24" fill="none" xmlns="http://www.w3.org/2000/svg">
<path d="M2.10059 19V9C2.10059 7.89543 2.99602 7 4.10059 7H4.60059C5.2301 7 5.82288 6.70361 6.20059 6.2L8.42059 3.24C8.5339 3.08892 8.71174 3 8.90059 3H15.3006C15.4895 3 15.6673 3.08892 15.7806 3.24L18.0006 6.2C18.3783 6.70361 18.9711 7 19.6006 7H20.1006C21.2052 7 22.1006 7.89543 22.1006 9V19C22.1006 20.1046 21.2052 21 20.1006 21H4.10059C2.99602 21 2.10059 20.1046 2.10059 19Z" stroke="#16161F" stroke-width="1.5" stroke-linecap="round" stroke-linejoin="round"/>
<path d="M12.1006 17C14.3097 17 16.1006 15.2091 16.1006 13C16.1006 10.7909 14.3097 9 12.1006 9C9.89145 9 8.10059 10.7909 8.10059 13C8.10059 15.2091 9.89145 17 12.1006 17Z" stroke="#16161F" stroke-width="1.5" stroke-linecap="round" stroke-linejoin="round"/>
</svg>
