<svg width="40" height="40" viewBox="0 0 40 40" fill="none" xmlns="http://www.w3.org/2000/svg">
<g filter="url(#filter0_i_1211_2769)">
<rect width="40" height="40" rx="20" fill="#F6F8FB"/>
<path fill-rule="evenodd" clip-rule="evenodd" d="M20 10.5C20.2761 10.5 20.5 10.7239 20.5 11C20.5 14.1246 21.1682 16.2134 22.4949 17.5314C23.8223 18.8502 25.912 19.5 29 19.5C29.2761 19.5 29.5 19.7239 29.5 20C29.5 20.2761 29.2761 20.5 29 20.5C25.9154 20.5 23.8247 21.1675 22.4961 22.4961C21.1675 23.8247 20.5 25.9154 20.5 29C20.5 29.2761 20.2761 29.5 20 29.5C19.7239 29.5 19.5 29.2761 19.5 29C19.5 25.9162 18.8281 23.8253 17.4971 22.4964C16.1658 21.1673 14.0747 20.5 11 20.5C10.7239 20.5 10.5 20.2761 10.5 20C10.5 19.7239 10.7239 19.5 11 19.5C14.078 19.5 16.1682 18.8503 17.4982 17.5312C18.8274 16.2128 19.5 14.1237 19.5 11C19.5 10.7239 19.7239 10.5 20 10.5Z" fill="#494A69"/>
<path fill-rule="evenodd" clip-rule="evenodd" d="M20 10.5C20.2761 10.5 20.5 10.7239 20.5 11C20.5 14.1246 21.1682 16.2134 22.4949 17.5314C23.8223 18.8502 25.912 19.5 29 19.5C29.2761 19.5 29.5 19.7239 29.5 20C29.5 20.2761 29.2761 20.5 29 20.5C25.9154 20.5 23.8247 21.1675 22.4961 22.4961C21.1675 23.8247 20.5 25.9154 20.5 29C20.5 29.2761 20.2761 29.5 20 29.5C19.7239 29.5 19.5 29.2761 19.5 29C19.5 25.9162 18.8281 23.8253 17.4971 22.4964C16.1658 21.1673 14.0747 20.5 11 20.5C10.7239 20.5 10.5 20.2761 10.5 20C10.5 19.7239 10.7239 19.5 11 19.5C14.078 19.5 16.1682 18.8503 17.4982 17.5312C18.8274 16.2128 19.5 14.1237 19.5 11C19.5 10.7239 19.7239 10.5 20 10.5Z" fill="url(#paint0_linear_1211_2769)" fill-opacity="0.2"/>
</g>
<defs>
<filter id="filter0_i_1211_2769" x="0" y="0" width="40" height="40" filterUnits="userSpaceOnUse" color-interpolation-filters="sRGB">
<feFlood flood-opacity="0" result="BackgroundImageFix"/>
<feBlend mode="normal" in="SourceGraphic" in2="BackgroundImageFix" result="shape"/>
<feColorMatrix in="SourceAlpha" type="matrix" values="0 0 0 0 0 0 0 0 0 0 0 0 0 0 0 0 0 0 127 0" result="hardAlpha"/>
<feOffset/>
<feGaussianBlur stdDeviation="2"/>
<feComposite in2="hardAlpha" operator="arithmetic" k2="-1" k3="1"/>
<feColorMatrix type="matrix" values="0 0 0 0 1 0 0 0 0 1 0 0 0 0 1 0 0 0 0.16 0"/>
<feBlend mode="normal" in2="shape" result="effect1_innerShadow_1211_2769"/>
</filter>
<linearGradient id="paint0_linear_1211_2769" x1="10.5" y1="10.5" x2="28.4493" y2="30.4456" gradientUnits="userSpaceOnUse">
<stop stop-color="white"/>
<stop offset="1" stop-color="#252536"/>
</linearGradient>
</defs>
</svg>
