<svg width="25" height="25" viewBox="0 0 25 25" fill="none" xmlns="http://www.w3.org/2000/svg">
<rect x="0.0439453" y="0.6875" width="24" height="24" rx="4" fill="#B3B3C6"/>
<rect x="0.0439453" y="0.6875" width="24" height="24" rx="4" fill="#16161F"/>
<path d="M14.2342 12.7195C15.2742 13.3435 15.8662 14.4635 15.8662 15.4395C15.8662 17.4075 14.2982 18.7995 12.0422 18.7995C9.8022 18.7995 8.2182 17.3915 8.2182 15.3915H9.6262C9.6262 16.6555 10.6182 17.5515 12.0422 17.5515C13.4822 17.5515 14.4902 16.6555 14.4902 15.3915C14.4902 14.1755 13.4822 13.3275 12.0742 13.3275H11.2262V12.0955H12.0742C13.3862 12.0955 14.3142 11.3115 14.3142 10.2075C14.3142 9.0715 13.4182 8.2715 12.1382 8.2715C10.8582 8.2715 9.9622 9.0715 9.9622 10.2235H8.5542C8.5542 8.3355 10.0262 7.0235 12.1382 7.0235C14.2182 7.0235 15.7062 8.3195 15.7062 10.1755C15.7062 11.0555 15.1622 12.0955 14.2342 12.7195Z" fill="white"/>
</svg>
