<svg width="24" height="25" viewBox="0 0 24 25" fill="none" xmlns="http://www.w3.org/2000/svg">
<g clip-path="url(#clip0_1597_5084)">
<g filter="url(#filter0_dd_1597_5084)">
<path fill-rule="evenodd" clip-rule="evenodd" d="M12.4024 2.10156C6.74224 2.10156 2.15381 6.9145 2.15381 12.8516C2.15381 18.7887 6.74224 23.6016 12.4024 23.6016C18.0625 23.6016 22.6509 18.7887 22.6509 12.8516C22.6509 6.9145 18.0625 2.10156 12.4024 2.10156ZM10.2112 9.4928C9.93198 9.19991 9.47926 9.19991 9.20002 9.4928C8.92079 9.7857 8.92079 10.2606 9.20002 10.5535L11.3909 12.8516L9.20002 15.1497C8.92079 15.4426 8.92079 15.9175 9.20002 16.2104C9.47926 16.5033 9.93198 16.5033 10.2112 16.2104L12.4021 13.9123L14.593 16.2104C14.8722 16.5033 15.3249 16.5033 15.6042 16.2104C15.8834 15.9175 15.8834 15.4426 15.6042 15.1497L13.4133 12.8516L15.6042 10.5535C15.8834 10.2606 15.8834 9.7857 15.6042 9.4928C15.3249 9.19991 14.8722 9.19991 14.593 9.4928L12.4021 11.7909L10.2112 9.4928Z" fill="white"/>
</g>
</g>
<defs>
<filter id="filter0_dd_1597_5084" x="-1.84619" y="-1.89844" width="32.4971" height="33.5" filterUnits="userSpaceOnUse" color-interpolation-filters="sRGB">
<feFlood flood-opacity="0" result="BackgroundImageFix"/>
<feColorMatrix in="SourceAlpha" type="matrix" values="0 0 0 0 0 0 0 0 0 0 0 0 0 0 0 0 0 0 127 0" result="hardAlpha"/>
<feOffset/>
<feGaussianBlur stdDeviation="1"/>
<feComposite in2="hardAlpha" operator="out"/>
<feColorMatrix type="matrix" values="0 0 0 0 0 0 0 0 0 0 0 0 0 0 0 0 0 0 0.2 0"/>
<feBlend mode="normal" in2="BackgroundImageFix" result="effect1_dropShadow_1597_5084"/>
<feColorMatrix in="SourceAlpha" type="matrix" values="0 0 0 0 0 0 0 0 0 0 0 0 0 0 0 0 0 0 127 0" result="hardAlpha"/>
<feOffset dx="2" dy="2"/>
<feGaussianBlur stdDeviation="3"/>
<feComposite in2="hardAlpha" operator="out"/>
<feColorMatrix type="matrix" values="0 0 0 0 0 0 0 0 0 0 0 0 0 0 0 0 0 0 0.06 0"/>
<feBlend mode="normal" in2="effect1_dropShadow_1597_5084" result="effect2_dropShadow_1597_5084"/>
<feBlend mode="normal" in="SourceGraphic" in2="effect2_dropShadow_1597_5084" result="shape"/>
</filter>
<clipPath id="clip0_1597_5084">
<rect width="22.8805" height="24" fill="white" transform="translate(0.961914 0.851562)"/>
</clipPath>
</defs>
</svg>
