<svg width="24" height="24" viewBox="0 0 24 24" fill="none" xmlns="http://www.w3.org/2000/svg">
<rect width="24" height="24" rx="4" fill="#B3B3C6"/>
<rect width="24" height="24" rx="4" fill="#16161F"/>
<path d="M12.0098 16.768C13.4818 16.768 14.4418 15.712 14.4418 14.528C14.4418 13.36 13.4818 12.32 12.0098 12.32C10.5218 12.32 9.57781 13.36 9.57781 14.528C9.57781 15.712 10.5218 16.768 12.0098 16.768ZM8.18581 14.528C8.18581 13.984 8.32981 13.456 8.55381 12.96L12.7778 6.304L13.9938 7.072L11.4818 11.008C11.7698 10.96 11.9138 10.944 12.2178 10.96C14.2658 10.976 15.8338 12.496 15.8338 14.528C15.8338 16.624 14.1538 18.192 12.0098 18.192C9.84981 18.192 8.18581 16.624 8.18581 14.528Z" fill="white"/>
</svg>
