<svg width="24" height="24" viewBox="0 0 24 24" fill="none" xmlns="http://www.w3.org/2000/svg">
<rect width="24" height="24" rx="4" fill="#B3B3C6"/>
<rect width="24" height="24" rx="4" fill="#16161F"/>
<path d="M12.0046 16.832C13.4766 16.832 14.5166 15.808 14.5166 14.768C14.5166 13.712 13.4766 12.704 12.0046 12.704C10.5326 12.704 9.47663 13.712 9.47663 14.768C9.47663 15.808 10.5166 16.832 12.0046 16.832ZM8.06863 14.768C8.06863 13.568 8.77263 12.544 9.82863 11.952C8.98063 11.376 8.38863 10.512 8.38863 9.472C8.38863 7.632 10.1166 6.304 12.0046 6.304C13.8926 6.304 15.6206 7.632 15.6206 9.472C15.6206 10.512 15.0446 11.376 14.1806 11.952C15.2206 12.544 15.9406 13.568 15.9406 14.768C15.9406 16.752 14.0846 18.208 12.0046 18.208C9.92463 18.208 8.06863 16.752 8.06863 14.768ZM9.81263 9.456C9.81263 10.352 10.7086 11.232 12.0046 11.232C13.3006 11.232 14.1966 10.352 14.1966 9.456C14.1966 8.56 13.3006 7.68 12.0046 7.68C10.7086 7.68 9.81263 8.56 9.81263 9.456Z" fill="white"/>
</svg>
