<svg width="25" height="24" viewBox="0 0 25 24" fill="none" xmlns="http://www.w3.org/2000/svg">
<path fill-rule="evenodd" clip-rule="evenodd" d="M1.35059 12C1.35059 6.06294 6.16353 1.25 12.1006 1.25C18.0377 1.25 22.8506 6.06294 22.8506 12C22.8506 17.9371 18.0377 22.75 12.1006 22.75C6.16353 22.75 1.35059 17.9371 1.35059 12ZM12.1006 6.25C12.5148 6.25 12.8506 6.58579 12.8506 7V13C12.8506 13.4142 12.5148 13.75 12.1006 13.75C11.6864 13.75 11.3506 13.4142 11.3506 13V7C11.3506 6.58579 11.6864 6.25 12.1006 6.25ZM12.6681 17.5008C12.9452 17.1929 12.9202 16.7187 12.6123 16.4416C12.3044 16.1645 11.8302 16.1894 11.5531 16.4973L11.5431 16.5084C11.266 16.8163 11.291 17.2905 11.5989 17.5676C11.9068 17.8447 12.381 17.8197 12.6581 17.5119L12.6681 17.5008Z" fill="#16161F"/>
</svg>
