<svg width="750" height="590" viewBox="0 0 750 590" fill="none" xmlns="http://www.w3.org/2000/svg">
<path d="M371.891 159.745C406.281 159.745 434.16 125.993 434.16 84.3579C434.16 42.7227 406.281 8.9707 371.891 8.9707C337.502 8.9707 309.623 42.7227 309.623 84.3579C309.623 125.993 337.502 159.745 371.891 159.745Z" fill="white" stroke="#252536" stroke-width="16" stroke-miterlimit="10"/>
<path d="M685.932 215.267C716.546 215.267 741.363 190.449 741.363 159.835C741.363 129.221 716.546 104.403 685.932 104.403C655.318 104.403 630.5 129.221 630.5 159.835C630.5 190.449 655.318 215.267 685.932 215.267Z" fill="white" stroke="#252536" stroke-width="16" stroke-miterlimit="10"/>
<path d="M64.213 215.267C94.8271 215.267 119.645 190.449 119.645 159.835C119.645 129.221 94.8271 104.403 64.213 104.403C33.5989 104.403 8.78125 129.221 8.78125 159.835C8.78125 190.449 33.5989 215.267 64.213 215.267Z" fill="white" stroke="#252536" stroke-width="16" stroke-miterlimit="10"/>
<path d="M360.623 479.404C363.949 414.734 340.021 423.972 314.615 423.972C289.209 423.972 264.264 368.54 268.607 479.404C269.808 509.984 271.933 581.029 314.615 581.029C368.291 581.029 359.053 509.984 360.623 479.404Z" fill="white" stroke="#252536" stroke-width="16" stroke-miterlimit="10"/>
<path d="M388.154 479.404C384.828 414.734 408.756 423.972 434.163 423.972C459.569 423.972 484.513 368.54 480.171 479.404C478.97 509.984 476.845 581.029 434.163 581.029C380.486 581.029 389.725 509.984 388.154 479.404Z" fill="white" stroke="#252536" stroke-width="16" stroke-miterlimit="10"/>
<mask id="mask0_1490_3884" style="mask-type:luminance" maskUnits="userSpaceOnUse" x="79" y="53" width="295" height="454">
<path d="M80.6201 505.748V54.8711H372.381V505.748H80.6201Z" fill="white" stroke="white" stroke-width="2"/>
</mask>
<g mask="url(#mask0_1490_3884)">
<path d="M840.868 242.732C792.747 414.669 618.426 492.494 464.001 492.509C418.274 492.505 373.428 486.193 330.829 473.769C230.67 444.496 155.265 387.036 117.804 312.434C92.125 261.138 86.3864 206.398 101.464 158.188C108.122 136.899 125.716 114.327 149.987 97.0327C174.197 79.7816 204.603 68.1084 236.421 68.1084C284.238 68.1084 330.951 93.5621 371.48 142.931L372.408 144.099L373.549 145.537L375.35 145.894L827.707 235.735C828.318 236.059 829.128 236.489 830.071 236.989C833.027 238.557 837.296 240.82 840.868 242.732Z" fill="#FFC93F" stroke="#252536" stroke-width="10"/>
<mask id="path-8-inside-1_1490_3884" fill="white">
<path d="M236.421 67.7289C284.876 67.7289 331.77 93.6894 372.077 142.839L374.07 145.241L377.017 145.795L828.104 235.41C828.797 235.872 829.491 236.241 830.184 236.519L837.379 240.306C838.852 241.045 840.239 241.877 841.626 242.524C820.216 319.112 771.848 382.951 701.463 427.573C634.979 469.609 550.639 492.798 464.045 492.798C418.191 492.798 373.29 486.516 330.557 473.951C230.527 444.757 154.768 387.385 117.149 312.368C91.4911 261.186 85.6835 206.401 100.853 157.99C107.354 137.111 124.95 114.661 147.92 97.7544C174.271 78.3533 205.736 67.6365 236.421 67.6365M236.421 58.4902C165.17 58.4902 106.4 110.966 92.618 155.219C57.9457 266.082 126.423 424.063 328.303 483.005C372.077 495.754 418.104 502.129 464.045 502.129C636.366 502.129 807.387 412.792 851.941 237.812L830.791 226.633L378.578 136.834C331.597 79.5543 281.409 58.5826 236.335 58.5826L236.421 58.4902Z"/>
</mask>
<path d="M236.421 67.7289C284.876 67.7289 331.77 93.6894 372.077 142.839L374.07 145.241L377.017 145.795L828.104 235.41C828.797 235.872 829.491 236.241 830.184 236.519L837.379 240.306C838.852 241.045 840.239 241.877 841.626 242.524C820.216 319.112 771.848 382.951 701.463 427.573C634.979 469.609 550.639 492.798 464.045 492.798C418.191 492.798 373.29 486.516 330.557 473.951C230.527 444.757 154.768 387.385 117.149 312.368C91.4911 261.186 85.6835 206.401 100.853 157.99C107.354 137.111 124.95 114.661 147.92 97.7544C174.271 78.3533 205.736 67.6365 236.421 67.6365M236.421 58.4902C165.17 58.4902 106.4 110.966 92.618 155.219C57.9457 266.082 126.423 424.063 328.303 483.005C372.077 495.754 418.104 502.129 464.045 502.129C636.366 502.129 807.387 412.792 851.941 237.812L830.791 226.633L378.578 136.834C331.597 79.5543 281.409 58.5826 236.335 58.5826L236.421 58.4902Z" fill="#252536"/>
<path d="M372.077 142.839L370.53 144.107L370.538 144.116L372.077 142.839ZM374.07 145.241L372.531 146.518L372.992 147.073L373.701 147.206L374.07 145.241ZM377.017 145.795L377.407 143.834L377.397 143.832L377.387 143.83L377.017 145.795ZM828.104 235.41L829.213 233.745L828.883 233.525L828.494 233.448L828.104 235.41ZM830.184 236.519L831.116 234.749L831.023 234.7L830.926 234.661L830.184 236.519ZM837.379 240.306L836.447 242.076L836.464 242.085L836.482 242.094L837.379 240.306ZM841.626 242.524L843.552 243.062L844.009 241.428L842.471 240.711L841.626 242.524ZM701.463 427.573L702.532 429.264L702.534 429.262L701.463 427.573ZM330.557 473.951L331.121 472.032L331.117 472.031L330.557 473.951ZM117.149 312.368L115.361 313.264L115.361 313.264L117.149 312.368ZM100.853 157.99L102.761 158.588L102.762 158.585L100.853 157.99ZM147.92 97.7544L149.106 99.3651L149.106 99.3649L147.92 97.7544ZM236.421 58.4902L237.88 59.8587L241.04 56.4902H236.421V58.4902ZM92.618 155.219L94.5268 155.816L94.5275 155.813L92.618 155.219ZM328.303 483.005L327.742 484.925L327.744 484.925L328.303 483.005ZM851.941 237.812L853.879 238.305L854.268 236.78L852.876 236.044L851.941 237.812ZM830.791 226.633L831.725 224.865L831.467 224.728L831.18 224.671L830.791 226.633ZM378.578 136.834L377.031 138.102L377.486 138.656L378.188 138.795L378.578 136.834ZM236.335 58.5826L234.876 57.2142L231.716 60.5826H236.335V58.5826ZM236.421 69.7289C284.102 69.7289 330.476 95.2659 370.53 144.107L373.623 141.571C333.064 92.1129 285.65 65.7289 236.421 65.7289V69.7289ZM370.538 144.116L372.531 146.518L375.609 143.964L373.616 141.562L370.538 144.116ZM373.701 147.206L376.648 147.761L377.387 143.83L374.44 143.275L373.701 147.206ZM376.628 147.757L827.714 237.371L828.494 233.448L377.407 143.834L376.628 147.757ZM826.995 237.074C827.79 237.604 828.606 238.042 829.442 238.376L830.926 234.661C830.375 234.441 829.804 234.139 829.213 233.745L826.995 237.074ZM829.252 238.288L836.447 242.076L838.31 238.537L831.116 234.749L829.252 238.288ZM836.482 242.094C837.183 242.446 837.863 242.819 838.583 243.209C839.288 243.59 840.028 243.985 840.781 244.336L842.471 240.711C841.837 240.415 841.19 240.071 840.487 239.691C839.798 239.318 839.047 238.906 838.275 238.519L836.482 242.094ZM839.7 241.985C818.43 318.073 770.382 381.512 700.392 425.884L702.534 429.262C773.314 384.389 822.002 320.151 843.552 243.062L839.7 241.985ZM700.394 425.883C634.262 467.696 550.3 490.798 464.045 490.798V494.798C550.978 494.798 635.697 471.522 702.532 429.264L700.394 425.883ZM464.045 490.798C418.373 490.798 373.663 484.541 331.121 472.032L329.992 475.87C372.917 488.491 418.008 494.798 464.045 494.798V490.798ZM331.117 472.031C231.483 442.953 156.249 385.876 118.936 311.471L115.361 313.264C153.287 388.894 229.571 446.562 329.996 475.871L331.117 472.031ZM118.937 311.471C93.4786 260.687 87.7678 206.438 102.761 158.588L98.9442 157.392C83.5993 206.363 89.5037 261.684 115.361 313.264L118.937 311.471ZM102.762 158.585C109.102 138.224 126.371 116.098 149.106 99.3651L146.735 96.1436C123.529 113.224 105.606 135.998 98.9431 157.396L102.762 158.585ZM149.106 99.3649C175.138 80.1986 206.193 69.6365 236.421 69.6365V65.6365C205.28 65.6365 173.404 76.5079 146.734 96.1438L149.106 99.3649ZM236.421 56.4902C200.301 56.4902 167.389 69.7887 141.783 88.6492C116.204 107.489 97.7548 131.999 90.7084 154.624L94.5275 155.813C101.263 134.185 119.09 110.331 144.155 91.8699C169.191 73.4295 201.29 60.4902 236.421 60.4902V56.4902ZM90.7092 154.622C55.6285 266.791 125.043 425.743 327.742 484.925L328.863 481.085C127.803 422.382 60.2629 265.373 94.5268 155.816L90.7092 154.622ZM327.744 484.925C371.705 497.729 417.921 504.129 464.045 504.129V500.129C418.287 500.129 372.448 493.779 328.862 481.085L327.744 484.925ZM464.045 504.129C636.935 504.129 809.024 414.467 853.879 238.305L850.003 237.318C805.75 411.116 635.798 500.129 464.045 500.129V504.129ZM852.876 236.044L831.725 224.865L829.856 228.401L851.006 239.58L852.876 236.044ZM831.18 224.671L378.967 134.872L378.188 138.795L830.401 228.595L831.18 224.671ZM380.124 135.565C332.829 77.9034 282.105 56.5826 236.335 56.5826V60.5826C280.712 60.5826 330.364 81.2051 377.031 138.102L380.124 135.565ZM237.793 59.9511L237.88 59.8587L234.963 57.1218L234.876 57.2142L237.793 59.9511Z" fill="#252536" mask="url(#path-8-inside-1_1490_3884)"/>
</g>
<mask id="mask1_1490_3884" style="mask-type:luminance" maskUnits="userSpaceOnUse" x="373" y="53" width="295" height="454">
<path d="M374.466 505.748V54.8711H666.227V505.748H374.466Z" fill="white" stroke="white" stroke-width="2"/>
</mask>
<g mask="url(#mask1_1490_3884)">
<path d="M371.501 145.894L373.301 145.537L374.442 144.099L375.37 142.931C415.9 93.5621 462.612 68.1084 510.429 68.1084C542.247 68.1084 572.653 79.7816 596.863 97.0327C621.134 114.327 638.728 136.899 645.386 158.188C660.464 206.397 654.725 261.137 629.047 312.432C591.586 387.035 516.181 444.496 416.021 473.769C373.423 486.193 328.576 492.505 282.85 492.509C128.424 492.494 -45.897 414.669 -94.0178 242.732C-90.447 240.82 -86.1811 238.559 -83.225 236.991C-82.2797 236.49 -81.4684 236.06 -80.8565 235.735L371.501 145.894Z" fill="#FFC93F" stroke="#252536" stroke-width="10"/>
<mask id="path-12-inside-2_1490_3884" fill="white">
<path d="M510.427 67.7289C461.972 67.7289 415.078 93.6894 374.772 142.839L372.778 145.241L369.831 145.795L-81.2556 235.41C-81.949 235.872 -82.6425 236.241 -83.3359 236.519L-90.5304 240.306C-92.004 241.045 -93.3909 241.877 -94.7778 242.524C-73.3676 319.112 -24.9998 382.951 45.3849 427.573C111.869 469.609 196.209 492.798 282.803 492.798C328.657 492.798 373.558 486.516 416.292 473.951C516.321 444.757 592.08 387.385 629.699 312.368C655.357 261.186 661.165 206.401 645.995 157.99C639.494 137.111 621.898 114.661 598.928 97.7544C572.577 78.3533 541.112 67.6365 510.427 67.6365M510.427 58.4902C581.678 58.4902 640.448 110.966 654.23 155.219C688.902 266.082 620.425 424.063 418.545 483.005C374.772 495.754 328.744 502.129 282.803 502.129C110.482 502.129 -60.4522 412.792 -105.093 237.812L-83.9427 226.633L368.271 136.834C415.251 79.5543 465.44 58.5826 510.513 58.5826L510.427 58.4902Z"/>
</mask>
<path d="M510.427 67.7289C461.972 67.7289 415.078 93.6894 374.772 142.839L372.778 145.241L369.831 145.795L-81.2556 235.41C-81.949 235.872 -82.6425 236.241 -83.3359 236.519L-90.5304 240.306C-92.004 241.045 -93.3909 241.877 -94.7778 242.524C-73.3676 319.112 -24.9998 382.951 45.3849 427.573C111.869 469.609 196.209 492.798 282.803 492.798C328.657 492.798 373.558 486.516 416.292 473.951C516.321 444.757 592.08 387.385 629.699 312.368C655.357 261.186 661.165 206.401 645.995 157.99C639.494 137.111 621.898 114.661 598.928 97.7544C572.577 78.3533 541.112 67.6365 510.427 67.6365M510.427 58.4902C581.678 58.4902 640.448 110.966 654.23 155.219C688.902 266.082 620.425 424.063 418.545 483.005C374.772 495.754 328.744 502.129 282.803 502.129C110.482 502.129 -60.4522 412.792 -105.093 237.812L-83.9427 226.633L368.271 136.834C415.251 79.5543 465.44 58.5826 510.513 58.5826L510.427 58.4902Z" fill="#252536"/>
<path d="M374.772 142.839L382.466 149.225L382.485 149.203L382.504 149.18L374.772 142.839ZM372.778 145.241L374.626 155.069L378.17 154.402L380.473 151.627L372.778 145.241ZM369.831 145.795L367.982 135.968L367.932 135.977L367.882 135.987L369.831 145.795ZM-81.2556 235.41L-83.2041 225.602L-85.1492 225.988L-86.7995 227.087L-81.2556 235.41ZM-83.3359 236.519L-87.0473 227.233L-87.5323 227.427L-87.9945 227.67L-83.3359 236.519ZM-90.5304 240.306L-86.0471 249.245L-85.959 249.201L-85.8718 249.155L-90.5304 240.306ZM-94.7778 242.524L-99.0039 233.46L-106.693 237.046L-104.409 245.216L-94.7778 242.524ZM45.3849 427.573L40.0305 436.019L40.0408 436.025L45.3849 427.573ZM416.292 473.951L413.49 464.352L413.48 464.354L413.471 464.357L416.292 473.951ZM629.699 312.368L638.638 316.85L638.639 316.849L629.699 312.368ZM645.995 157.99L636.448 160.963L636.45 160.972L636.453 160.98L645.995 157.99ZM598.928 97.7544L592.999 105.807L593 105.808L598.928 97.7544ZM510.427 58.4902V48.4902H487.344L503.132 65.3298L510.427 58.4902ZM654.23 155.219L644.682 158.192L644.686 158.204L654.23 155.219ZM418.545 483.005L421.342 492.606L421.348 492.604L418.545 483.005ZM-105.093 237.812L-109.766 228.971L-116.73 232.652L-114.782 240.284L-105.093 237.812ZM-83.9427 226.633L-85.8904 216.825L-87.3237 217.109L-88.6156 217.792L-83.9427 226.633ZM368.271 136.834L370.218 146.642L373.731 145.945L376.002 143.175L368.271 136.834ZM510.513 58.5826V68.5826H533.596L517.809 51.7431L510.513 58.5826ZM510.427 57.7289C458.101 57.7289 408.61 85.8068 367.039 136.498L382.504 149.18C421.546 101.572 465.843 77.7289 510.427 77.7289V57.7289ZM367.077 136.452L365.083 138.854L380.473 151.627L382.466 149.225L367.077 136.452ZM370.93 135.413L367.982 135.968L371.679 155.623L374.626 155.069L370.93 135.413ZM367.882 135.987L-83.2041 225.602L-79.307 245.218L371.779 155.604L367.882 135.987ZM-86.7995 227.087C-86.983 227.209 -87.066 227.24 -87.0473 227.233L-79.6245 245.804C-78.219 245.243 -76.9151 244.534 -75.7116 243.732L-86.7995 227.087ZM-87.9945 227.67L-95.189 231.458L-85.8718 249.155L-78.6773 245.367L-87.9945 227.67ZM-95.0137 231.368C-95.9271 231.826 -96.82 232.316 -97.4458 232.655C-98.1458 233.033 -98.6074 233.276 -99.0039 233.46L-90.5517 251.587C-89.5613 251.125 -88.6359 250.628 -87.9274 250.244C-87.1447 249.821 -86.6073 249.526 -86.0471 249.245L-95.0137 231.368ZM-104.409 245.216C-82.2984 324.308 -32.3307 390.143 40.0305 436.019L50.7393 419.128C-17.669 375.758 -64.4369 313.915 -85.147 239.831L-104.409 245.216ZM40.0408 436.025C108.281 479.172 194.513 502.798 282.803 502.798V482.798C197.906 482.798 115.457 460.046 50.729 419.121L40.0408 436.025ZM282.803 502.798C329.571 502.798 375.424 496.39 419.112 483.545L413.471 464.357C371.692 476.641 327.744 482.798 282.803 482.798V502.798ZM419.093 483.551C521.101 453.779 599.484 394.929 638.638 316.85L620.76 307.885C584.676 379.842 511.541 435.735 413.49 464.352L419.093 483.551ZM638.639 316.849C665.294 263.677 671.586 206.214 655.538 155L636.453 160.98C650.744 206.587 645.42 258.694 620.76 307.886L638.639 316.849ZM655.543 155.017C648.235 131.545 629.005 107.475 604.856 89.7007L593 105.808C614.791 121.847 630.754 142.677 636.448 160.963L655.543 155.017ZM604.857 89.7016C576.911 69.1266 543.394 57.6365 510.427 57.6365V77.6365C538.83 77.6365 568.242 87.58 592.999 105.807L604.857 89.7016ZM510.427 68.4902C543.582 68.4902 574.053 80.7111 597.949 98.3113C621.986 116.015 638.568 138.559 644.682 158.192L663.778 152.245C656.11 127.626 636.416 101.805 609.81 82.2079C583.062 62.5071 548.523 48.4902 510.427 48.4902V68.4902ZM644.686 158.204C677.316 262.538 613.525 415.66 415.743 473.406L421.348 492.604C627.325 432.465 700.489 269.626 663.774 152.234L644.686 158.204ZM415.749 473.404C372.914 485.88 327.83 492.129 282.803 492.129V512.129C329.659 512.129 376.629 505.629 421.342 492.606L415.749 473.404ZM282.803 492.129C113.329 492.129 -52.2688 404.415 -95.4031 235.34L-114.782 240.284C-68.6356 421.168 107.635 512.129 282.803 512.129V492.129ZM-100.42 246.653L-79.2698 235.474L-88.6156 217.792L-109.766 228.971L-100.42 246.653ZM-81.9949 236.442L370.218 146.642L366.323 127.025L-85.8904 216.825L-81.9949 236.442ZM376.002 143.175C421.415 87.8084 468.92 68.5826 510.513 68.5826V48.5826C461.959 48.5826 409.088 71.3001 360.539 130.492L376.002 143.175ZM517.809 51.7431L517.722 51.6507L503.132 65.3298L503.218 65.4222L517.809 51.7431Z" fill="#252536" mask="url(#path-12-inside-2_1490_3884)"/>
</g>
<path d="M357.389 67.45C356.373 67.45 356.003 67.2652 356.003 67.2652C355.818 66.8033 355.818 64.4013 355.818 62.8307C355.818 61.2601 355.818 58.9504 356.096 58.3037C356.096 58.3037 356.557 58.3037 357.297 58.3037C358.313 58.3037 358.682 58.4885 358.682 58.4885C358.867 58.9505 358.867 61.3525 358.867 62.923C358.867 64.4936 358.867 66.8033 358.59 67.45C358.59 67.45 358.128 67.45 357.389 67.45Z" fill="#252536"/>
<path d="M357.386 53.5928C351.196 53.5928 351.196 57.7502 351.196 62.8314C351.196 67.9126 351.196 72.07 357.386 72.07C363.576 72.07 363.576 67.9126 363.576 62.8314C363.576 57.7502 363.576 53.5928 357.386 53.5928Z" fill="#252536"/>
<path d="M388.241 67.45C387.224 67.45 386.855 67.2652 386.855 67.2652C386.67 66.8033 386.67 64.4013 386.67 62.8307C386.67 61.2601 386.67 58.9504 386.947 58.3037C386.947 58.3037 387.409 58.3037 388.148 58.3037C389.164 58.3037 389.534 58.4885 389.534 58.4885C389.719 58.9505 389.719 61.3525 389.719 62.923C389.719 64.4936 389.719 66.8033 389.442 67.45C389.442 67.45 388.98 67.45 388.241 67.45Z" fill="#252536"/>
<path d="M388.242 53.5928C382.052 53.5928 382.052 57.7502 382.052 62.8314C382.052 67.9126 382.052 72.07 388.242 72.07C394.432 72.07 394.432 67.9126 394.432 62.8314C394.432 57.7502 394.432 53.5928 388.242 53.5928Z" fill="#252536"/>
<path d="M494.286 128.55L494.286 273.554" stroke="#FF9110" stroke-width="12" stroke-linecap="round"/>
<path d="M453.217 231.17L598.221 231.17" stroke="#FF9110" stroke-width="12" stroke-linecap="round"/>
<path d="M554.521 128.55L554.521 273.554" stroke="#FF9110" stroke-width="12" stroke-linecap="round"/>
<path d="M453.217 170.935L598.221 170.935" stroke="#FF9110" stroke-width="12" stroke-linecap="round"/>
</svg>
