<svg width="200" height="200" viewBox="0 0 200 200" fill="none" xmlns="http://www.w3.org/2000/svg">
<rect width="200" height="200" fill="white"/>
<path d="M99.3202 75.921C106.673 75.921 112.634 68.7047 112.634 59.8028C112.634 50.901 106.673 43.6846 99.3202 43.6846C91.9674 43.6846 86.0068 50.901 86.0068 59.8028C86.0068 68.7047 91.9674 75.921 99.3202 75.921Z" fill="white" stroke="#C9CBD8" stroke-width="3" stroke-miterlimit="10"/>
<path d="M166.464 87.7921C173.009 87.7921 178.316 82.486 178.316 75.9405C178.316 69.395 173.009 64.0889 166.464 64.0889C159.918 64.0889 154.612 69.395 154.612 75.9405C154.612 82.486 159.918 87.7921 166.464 87.7921Z" fill="white" stroke="#C9CBD8" stroke-width="3" stroke-miterlimit="10"/>
<path d="M33.5362 87.7921C40.0817 87.7921 45.3878 82.486 45.3878 75.9405C45.3878 69.395 40.0817 64.0889 33.5362 64.0889C26.9907 64.0889 21.6846 69.395 21.6846 75.9405C21.6846 82.486 26.9907 87.7921 33.5362 87.7921Z" fill="white" stroke="#C9CBD8" stroke-width="3" stroke-miterlimit="10"/>
<path d="M96.9105 144.266C97.6216 130.439 92.5056 132.414 87.0736 132.414C81.6416 132.414 76.3084 120.562 77.2368 144.266C77.4935 150.804 77.9479 165.994 87.0736 165.994C98.5499 165.994 96.5747 150.804 96.9105 144.266Z" fill="white" stroke="#C9CBD8" stroke-width="3" stroke-miterlimit="10"/>
<path d="M102.797 144.266C102.086 130.439 107.202 132.414 112.634 132.414C118.066 132.414 123.399 120.562 122.471 144.266C122.214 150.804 121.759 165.994 112.634 165.994C101.157 165.994 103.133 150.804 102.797 144.266Z" fill="white" stroke="#C9CBD8" stroke-width="3" stroke-miterlimit="10"/>
<mask id="mask0_1293_2716" style="mask-type:luminance" maskUnits="userSpaceOnUse" x="36" y="53" width="64" height="98">
<path d="M37.8301 149.114V54.2861H98.6379V149.114H37.8301Z" fill="white" stroke="white" stroke-width="2"/>
</mask>
<g mask="url(#mask0_1293_2716)">
<path d="M90.5217 143.127C69.0931 136.864 52.953 124.568 44.933 108.597C39.436 97.6158 38.2057 85.8936 41.4354 75.5668C42.8645 70.9972 46.6376 66.1598 51.8358 62.4558C57.0217 58.7605 63.5364 56.2588 70.3559 56.2588C80.6062 56.2588 90.6116 61.7155 99.2859 72.2817L99.4848 72.5321L99.713 72.8197L100.073 72.8912L196.8 92.1016C196.932 92.1718 197.109 92.2657 197.316 92.3756C197.962 92.7179 198.899 93.2148 199.672 93.6286C189.392 130.472 152.057 147.136 119.005 147.136V148.136C109.133 148.134 99.4467 146.772 90.2417 144.087M90.5217 143.127C90.5218 143.127 90.522 143.127 90.5222 143.127L90.2417 144.087M90.5217 143.127L90.2417 144.087M90.5217 143.127L44.0393 109.045C52.2123 125.322 68.6138 137.766 90.2417 144.087" fill="#FFFBD3" stroke="#C9CBD8" stroke-width="2"/>
<mask id="path-8-inside-1_1293_2716" fill="white">
<path d="M70.3558 56.2468C80.7156 56.2468 90.7419 61.7973 99.3597 72.3057L99.7859 72.8193L100.416 72.9378L196.861 92.098C197.009 92.1967 197.158 92.2757 197.306 92.335L198.844 93.1448C199.159 93.3029 199.456 93.4807 199.752 93.6189C195.175 109.994 184.833 123.643 169.785 133.184C155.57 142.171 137.537 147.129 119.023 147.129C109.219 147.129 99.6191 145.786 90.4824 143.1C69.0955 136.858 52.8978 124.591 44.8545 108.552C39.3688 97.609 38.1271 85.8956 41.3704 75.5452C42.7603 71.0811 46.5225 66.2811 51.4337 62.6664C57.0677 58.5183 63.7951 56.227 70.3558 56.227M70.3558 54.2715C55.1217 54.2715 42.5565 65.491 39.6097 74.9526C32.1966 98.6559 46.8376 132.433 90.0006 145.035C99.3597 147.761 109.201 149.124 119.023 149.124C155.866 149.124 192.432 130.023 201.958 92.6115L197.436 90.2215L100.75 71.0218C90.7048 58.7751 79.9743 54.2912 70.3372 54.2912L70.3558 54.2715Z"/>
</mask>
<path d="M70.3558 56.2468C80.7156 56.2468 90.7419 61.7973 99.3597 72.3057L99.7859 72.8193L100.416 72.9378L196.861 92.098C197.009 92.1967 197.158 92.2757 197.306 92.335L198.844 93.1448C199.159 93.3029 199.456 93.4807 199.752 93.6189C195.175 109.994 184.833 123.643 169.785 133.184C155.57 142.171 137.537 147.129 119.023 147.129C109.219 147.129 99.6191 145.786 90.4824 143.1C69.0955 136.858 52.8978 124.591 44.8545 108.552C39.3688 97.609 38.1271 85.8956 41.3704 75.5452C42.7603 71.0811 46.5225 66.2811 51.4337 62.6664C57.0677 58.5183 63.7951 56.227 70.3558 56.227M70.3558 54.2715C55.1217 54.2715 42.5565 65.491 39.6097 74.9526C32.1966 98.6559 46.8376 132.433 90.0006 145.035C99.3597 147.761 109.201 149.124 119.023 149.124C155.866 149.124 192.432 130.023 201.958 92.6115L197.436 90.2215L100.75 71.0218C90.7048 58.7751 79.9743 54.2912 70.3372 54.2912L70.3558 54.2715Z" fill="#FFFBD3"/>
<path d="M99.3597 72.3057L97.8132 73.574L97.8207 73.583L99.3597 72.3057ZM99.7859 72.8193L98.2469 74.0966L98.7075 74.6515L99.4162 74.7848L99.7859 72.8193ZM100.416 72.9378L100.806 70.9761L100.796 70.9742L100.786 70.9723L100.416 72.9378ZM196.861 92.098L197.97 90.4334L197.64 90.2136L197.251 90.1363L196.861 92.098ZM197.306 92.335L198.238 90.5653L198.145 90.5166L198.048 90.4779L197.306 92.335ZM198.844 93.1448L197.912 94.9146L197.93 94.9237L197.947 94.9326L198.844 93.1448ZM199.752 93.6189L201.678 94.1574L202.135 92.5233L200.597 91.8063L199.752 93.6189ZM169.785 133.184L170.853 134.874L170.855 134.873L169.785 133.184ZM90.4824 143.1L91.0466 141.181L91.0428 141.18L90.4824 143.1ZM44.8545 108.552L43.0666 109.448L43.0667 109.449L44.8545 108.552ZM41.3704 75.5452L43.2789 76.1432L43.2799 76.1397L41.3704 75.5452ZM51.4337 62.6664L52.6192 64.2771L52.6195 64.277L51.4337 62.6664ZM70.3558 54.2715L71.8143 55.6399L74.9747 52.2715H70.3558V54.2715ZM39.6097 74.9526L41.5186 75.5496L41.5193 75.5473L39.6097 74.9526ZM90.0006 145.035L89.44 146.955L89.4413 146.955L90.0006 145.035ZM201.958 92.6115L203.896 93.105L204.284 91.5791L202.892 90.8433L201.958 92.6115ZM197.436 90.2215L198.37 88.4532L198.112 88.3167L197.825 88.2598L197.436 90.2215ZM100.75 71.0218L99.2033 72.2901L99.6575 72.844L100.36 72.9835L100.75 71.0218ZM70.3372 54.2912L68.8787 52.9228L65.7183 56.2912H70.3372V54.2912ZM70.3558 58.2468C79.9414 58.2468 89.4482 63.3738 97.8132 73.574L100.906 71.0375C92.0356 60.2208 81.4898 54.2468 70.3558 54.2468V58.2468ZM97.8207 73.583L98.2469 74.0966L101.325 71.542L100.899 71.0284L97.8207 73.583ZM99.4162 74.7848L100.046 74.9033L100.786 70.9723L100.156 70.8538L99.4162 74.7848ZM100.026 74.8995L196.471 94.0596L197.251 90.1363L100.806 70.9761L100.026 74.8995ZM195.752 93.7625C196.002 93.9292 196.273 94.076 196.564 94.1922L198.048 90.4779C198.042 90.4755 198.016 90.4643 197.97 90.4334L195.752 93.7625ZM196.374 94.1047L197.912 94.9146L199.776 91.3751L198.238 90.5653L196.374 94.1047ZM197.947 94.9326C198.07 94.9939 198.187 95.0583 198.353 95.1483C198.505 95.2302 198.699 95.3347 198.907 95.4315L200.597 91.8063C200.508 91.7649 200.407 91.7113 200.257 91.6303C200.122 91.5573 199.934 91.4538 199.741 91.3571L197.947 94.9326ZM197.826 93.0805C193.388 108.955 183.367 122.205 168.714 131.494L170.855 134.873C186.299 125.082 196.961 111.033 201.678 94.1574L197.826 93.0805ZM168.716 131.493C154.852 140.259 137.198 145.129 119.023 145.129V149.129C137.877 149.129 156.287 144.084 170.853 134.874L168.716 131.493ZM119.023 145.129C109.402 145.129 99.9923 143.811 91.0466 141.181L89.9183 145.018C99.2459 147.761 109.036 149.129 119.023 149.129V145.129ZM91.0428 141.18C70.0515 135.053 54.3786 123.082 46.6423 107.655L43.0667 109.449C51.417 126.1 68.1395 138.662 89.9221 145.019L91.0428 141.18ZM46.6425 107.656C41.3563 97.1107 40.2113 85.9328 43.2789 76.1432L39.4619 74.9472C36.0429 85.8584 37.3814 98.1073 43.0666 109.448L46.6425 107.656ZM43.2799 76.1397C44.5084 72.1943 47.9439 67.7183 52.6192 64.2771L50.2482 61.0557C45.1011 64.844 41.0123 69.9678 39.4608 74.9506L43.2799 76.1397ZM52.6195 64.277C57.9346 60.3637 64.2515 58.227 70.3558 58.227V54.227C63.3387 54.227 56.2008 56.673 50.2479 61.0558L52.6195 64.277ZM70.3558 52.2715C62.2446 52.2715 54.888 55.256 49.1889 59.4536C43.518 63.6305 39.3288 69.1285 37.7002 74.3579L41.5193 75.5473C42.8374 71.3151 46.4042 66.4726 51.5611 62.6743C56.6898 58.8968 63.2329 56.2715 70.3558 56.2715V52.2715ZM37.7009 74.3556C29.8794 99.3647 45.4576 134.114 89.44 146.955L90.5611 143.115C48.2175 130.752 34.5138 97.947 41.5186 75.5496L37.7009 74.3556ZM89.4413 146.955C98.9881 149.736 109.018 151.124 119.023 151.124V147.124C109.384 147.124 99.7312 145.786 90.5598 143.115L89.4413 146.955ZM119.023 151.124C156.435 151.124 194.069 131.699 203.896 93.105L200.019 92.118C190.795 128.347 155.298 147.124 119.023 147.124V151.124ZM202.892 90.8433L198.37 88.4532L196.501 91.9897L201.023 94.3798L202.892 90.8433ZM197.825 88.2598L101.139 69.0601L100.36 72.9835L197.046 92.1831L197.825 88.2598ZM102.296 69.7534C91.9375 57.1243 80.6704 52.2912 70.3372 52.2912V56.2912C79.2782 56.2912 89.4722 60.4259 99.2033 72.2901L102.296 69.7534ZM71.7957 55.6597L71.8143 55.6399L68.8972 52.903L68.8787 52.9228L71.7957 55.6597Z" fill="#C9CBD8" mask="url(#path-8-inside-1_1293_2716)"/>
</g>
<mask id="mask1_1293_2716" style="mask-type:luminance" maskUnits="userSpaceOnUse" x="99" y="53" width="64" height="98">
<path d="M100.657 149.114V54.2861H161.465V149.114H100.657Z" fill="white" stroke="white" stroke-width="2"/>
</mask>
<g mask="url(#mask1_1293_2716)">
<path d="M99.2209 72.8912L99.581 72.8197L99.8092 72.5321L100.008 72.282C108.682 61.7156 118.688 56.2588 128.938 56.2588C135.758 56.2588 142.272 58.7605 147.458 62.4558C152.656 66.1598 156.429 70.9972 157.859 75.5668C161.088 85.8939 159.858 97.6165 154.361 108.598C146.34 124.569 130.201 136.864 108.772 143.127C99.6581 145.785 90.0631 147.135 80.2803 147.136C47.2302 147.133 9.90117 130.468 -0.377695 93.6286C0.395279 93.2147 1.33272 92.7176 1.97822 92.3754C2.18529 92.2656 2.36232 92.1717 2.49424 92.1016L99.2209 72.8912Z" fill="#FFFBD3" stroke="#C9CBD8" stroke-width="2"/>
<mask id="path-12-inside-2_1293_2716" fill="white">
<path d="M128.938 56.2468C118.578 56.2468 108.552 61.7973 99.9338 72.3057L99.5076 72.8193L98.8774 72.9378L2.43247 92.098C2.28421 92.1967 2.13595 92.2757 1.98768 92.335L0.449457 93.1448C0.134398 93.3029 -0.162127 93.4807 -0.458653 93.6189C4.11896 109.994 14.4603 123.643 29.509 133.184C43.7237 142.171 61.7561 147.129 80.2705 147.129C90.0743 147.129 99.6744 145.786 108.811 143.1C130.198 136.858 146.396 124.591 154.439 108.552C159.925 97.609 161.166 85.8956 157.923 75.5452C156.533 71.0811 152.771 66.2811 147.86 62.6664C142.226 58.5183 135.498 56.227 128.938 56.227M128.938 54.2715C144.172 54.2715 156.737 65.491 159.684 74.9526C167.097 98.6559 152.456 132.433 109.293 145.035C99.9338 147.761 90.0929 149.124 80.2705 149.124C43.4271 149.124 6.88036 130.023 -2.66406 92.6115L1.85795 90.2215L98.5439 71.0218C108.589 58.7751 119.319 54.2912 128.956 54.2912L128.938 54.2715Z"/>
</mask>
<path d="M128.938 56.2468C118.578 56.2468 108.552 61.7973 99.9338 72.3057L99.5076 72.8193L98.8774 72.9378L2.43247 92.098C2.28421 92.1967 2.13595 92.2757 1.98768 92.335L0.449457 93.1448C0.134398 93.3029 -0.162127 93.4807 -0.458653 93.6189C4.11896 109.994 14.4603 123.643 29.509 133.184C43.7237 142.171 61.7561 147.129 80.2705 147.129C90.0743 147.129 99.6744 145.786 108.811 143.1C130.198 136.858 146.396 124.591 154.439 108.552C159.925 97.609 161.166 85.8956 157.923 75.5452C156.533 71.0811 152.771 66.2811 147.86 62.6664C142.226 58.5183 135.498 56.227 128.938 56.227M128.938 54.2715C144.172 54.2715 156.737 65.491 159.684 74.9526C167.097 98.6559 152.456 132.433 109.293 145.035C99.9338 147.761 90.0929 149.124 80.2705 149.124C43.4271 149.124 6.88036 130.023 -2.66406 92.6115L1.85795 90.2215L98.5439 71.0218C108.589 58.7751 119.319 54.2912 128.956 54.2912L128.938 54.2715Z" fill="#FFFBD3"/>
<path d="M99.9338 72.3057L101.473 73.5831L101.48 73.574L99.9338 72.3057ZM99.5076 72.8193L99.8772 74.7848L100.586 74.6515L101.047 74.0966L99.5076 72.8193ZM98.8774 72.9378L98.5078 70.9723L98.4977 70.9742L98.4877 70.9761L98.8774 72.9378ZM2.43247 92.098L2.04276 90.1363L1.65376 90.2136L1.32368 90.4334L2.43247 92.098ZM1.98768 92.335L1.24541 90.4779L1.14841 90.5166L1.05597 90.5653L1.98768 92.335ZM0.449457 93.1448L1.34612 94.9326L1.36373 94.9237L1.38117 94.9146L0.449457 93.1448ZM-0.458653 93.6189L-1.30387 91.8063L-2.8416 92.5233L-2.38481 94.1574L-0.458653 93.6189ZM29.509 133.184L28.4381 134.873L28.4402 134.874L29.509 133.184ZM108.811 143.1L108.251 141.18L108.247 141.181L108.811 143.1ZM154.439 108.552L156.227 109.449L156.227 109.448L154.439 108.552ZM157.923 75.5452L156.014 76.1397L156.015 76.1432L157.923 75.5452ZM147.86 62.6664L146.674 64.277L146.674 64.2771L147.86 62.6664ZM128.938 54.2715V52.2715H124.321L127.479 55.6394L128.938 54.2715ZM159.684 74.9526L157.774 75.5473L157.775 75.5496L159.684 74.9526ZM109.293 145.035L109.852 146.955L109.853 146.955L109.293 145.035ZM-2.66406 92.6115L-3.59864 90.8433L-4.99142 91.5795L-4.60199 93.1059L-2.66406 92.6115ZM1.85795 90.2215L1.46841 88.2598L1.18175 88.3167L0.923374 88.4532L1.85795 90.2215ZM98.5439 71.0218L98.9334 72.9835L99.636 72.844L100.09 72.2901L98.5439 71.0218ZM128.956 54.2912V56.2912H133.573L130.415 52.9233L128.956 54.2912ZM128.938 54.2468C117.804 54.2468 107.258 60.2208 98.3873 71.0375L101.48 73.574C109.845 63.3738 119.352 58.2468 128.938 58.2468V54.2468ZM98.3948 71.0284L97.9686 71.542L101.047 74.0966L101.473 73.583L98.3948 71.0284ZM99.1379 70.8538L98.5078 70.9723L99.2471 74.9033L99.8772 74.7848L99.1379 70.8538ZM98.4877 70.9761L2.04276 90.1363L2.82218 94.0596L99.2672 74.8995L98.4877 70.9761ZM1.32368 90.4334C1.27742 90.4643 1.25125 90.4755 1.24541 90.4779L2.72996 94.1922C3.02064 94.076 3.291 93.9292 3.54127 93.7625L1.32368 90.4334ZM1.05597 90.5653L-0.482258 91.3751L1.38117 94.9146L2.9194 94.1047L1.05597 90.5653ZM-0.447206 91.3571C-0.640047 91.4538 -0.828497 91.5573 -0.963381 91.6303C-1.11312 91.7113 -1.215 91.7649 -1.30387 91.8063L0.386569 95.4315C0.594223 95.3347 0.788861 95.2302 0.940286 95.1483C1.10656 95.0583 1.2239 94.9939 1.34612 94.9326L-0.447206 91.3571ZM-2.38481 94.1574C2.33281 111.033 12.9941 125.082 28.4381 134.873L30.5799 131.494C15.9265 122.205 5.90511 108.955 1.4675 93.0805L-2.38481 94.1574ZM28.4402 134.874C43.0061 144.084 61.4168 149.129 80.2705 149.129V145.129C62.0955 145.129 44.4412 140.259 30.5778 131.493L28.4402 134.874ZM80.2705 149.129C90.257 149.129 100.048 147.761 109.375 145.018L108.247 141.181C99.3012 143.811 89.8916 145.129 80.2705 145.129V149.129ZM109.371 145.019C131.154 138.662 147.876 126.1 156.227 109.449L152.651 107.655C144.915 123.082 129.242 135.053 108.251 141.18L109.371 145.019ZM156.227 109.448C161.912 98.1073 163.251 85.8584 159.832 74.9472L156.015 76.1432C159.082 85.9328 157.937 97.1107 152.651 107.656L156.227 109.448ZM159.833 74.9506C158.281 69.9678 154.192 64.844 149.045 61.0557L146.674 64.2771C151.35 67.7183 154.785 72.1943 156.014 76.1397L159.833 74.9506ZM149.046 61.0558C143.093 56.673 135.955 54.227 128.938 54.227V58.227C135.042 58.227 141.359 60.3637 146.674 64.277L149.046 61.0558ZM128.938 56.2715C136.061 56.2715 142.604 58.8968 147.732 62.6743C152.889 66.4726 156.456 71.3151 157.774 75.5473L161.593 74.3579C159.965 69.1285 155.775 63.6305 150.105 59.4536C144.405 55.256 137.049 52.2715 128.938 52.2715V56.2715ZM157.775 75.5496C164.78 97.947 151.076 130.752 108.732 143.115L109.853 146.955C153.836 134.114 169.414 99.3647 161.593 74.3556L157.775 75.5496ZM108.734 143.115C99.5622 145.786 89.91 147.124 80.2705 147.124V151.124C90.2758 151.124 100.305 149.736 109.852 146.955L108.734 143.115ZM80.2705 147.124C43.9965 147.124 8.51704 128.348 -0.726134 92.1171L-4.60199 93.1059C5.24368 131.698 42.8578 151.124 80.2705 151.124V147.124ZM-1.72948 94.3798L2.79253 91.9897L0.923374 88.4532L-3.59864 90.8433L-1.72948 94.3798ZM2.2475 92.1831L98.9334 72.9835L98.1543 69.0601L1.46841 88.2598L2.2475 92.1831ZM100.09 72.2901C109.821 60.4259 120.015 56.2912 128.956 56.2912V52.2912C118.623 52.2912 107.356 57.1243 96.9975 69.7534L100.09 72.2901ZM130.415 52.9233L130.397 52.9036L127.479 55.6394L127.497 55.6591L130.415 52.9233Z" fill="#C9CBD8" mask="url(#path-12-inside-2_1293_2716)"/>
</g>
<path d="M96.2186 56.188C96.0013 56.188 95.9223 56.1484 95.9223 56.1484C95.8828 56.0497 95.8828 55.5361 95.8828 55.2003C95.8828 54.8645 95.8828 54.3707 95.9421 54.2324C95.9421 54.2324 96.0408 54.2324 96.1989 54.2324C96.4161 54.2324 96.4951 54.2719 96.4951 54.2719C96.5347 54.3707 96.5347 54.8843 96.5347 55.2201C96.5347 55.5559 96.5347 56.0497 96.4754 56.188C96.4754 56.188 96.3766 56.188 96.2186 56.188Z" fill="#C9CBD8"/>
<path d="M96.218 53.2256C94.8945 53.2256 94.8945 54.1145 94.8945 55.2009C94.8945 56.2873 94.8945 57.1761 96.218 57.1761C97.5414 57.1761 97.5414 56.2873 97.5414 55.2009C97.5414 54.1145 97.5414 53.2256 96.218 53.2256Z" fill="#C9CBD8"/>
<path d="M102.815 56.188C102.598 56.188 102.519 56.1484 102.519 56.1484C102.479 56.0497 102.479 55.5361 102.479 55.2003C102.479 54.8645 102.479 54.3707 102.539 54.2324C102.539 54.2324 102.638 54.2324 102.796 54.2324C103.013 54.2324 103.092 54.2719 103.092 54.2719C103.131 54.3707 103.131 54.8843 103.131 55.2201C103.131 55.5559 103.131 56.0497 103.072 56.188C103.072 56.188 102.973 56.188 102.815 56.188Z" fill="#C9CBD8"/>
<path d="M102.816 53.2256C101.492 53.2256 101.492 54.1145 101.492 55.2009C101.492 56.2873 101.492 57.1761 102.816 57.1761C104.139 57.1761 104.139 56.2873 104.139 55.2009C104.139 54.1145 104.139 53.2256 102.816 53.2256Z" fill="#C9CBD8"/>
</svg>
