<svg width="40" height="40" viewBox="0 0 40 40" fill="none" xmlns="http://www.w3.org/2000/svg">
<g filter="url(#filter0_i_1211_2773)">
<rect width="40" height="40" rx="20" fill="#F6F8FB"/>
<path d="M11 11.1127C11 10.7813 11.2686 10.5127 11.6 10.5127H28.4C28.7314 10.5127 29 10.7813 29 11.1127V24.9127C29 25.2441 28.7314 25.5127 28.4 25.5127H23.2592C23.0938 25.5127 22.9357 25.581 22.8223 25.7015L20.4369 29.2985C20.2 29.5502 19.8 29.5502 19.5631 29.2985C19.5631 29.2985 17.2911 25.822 17.1777 25.7015C17.0643 25.581 16.9062 25.5127 16.7408 25.5127H11.6C11.2686 25.5127 11 25.2441 11 24.9127V11.1127Z" fill="#494A69"/>
<path d="M11 11.1127C11 10.7813 11.2686 10.5127 11.6 10.5127H28.4C28.7314 10.5127 29 10.7813 29 11.1127V24.9127C29 25.2441 28.7314 25.5127 28.4 25.5127H23.2592C23.0938 25.5127 22.9357 25.581 22.8223 25.7015L20.4369 29.2985C20.2 29.5502 19.8 29.5502 19.5631 29.2985C19.5631 29.2985 17.2911 25.822 17.1777 25.7015C17.0643 25.581 16.9062 25.5127 16.7408 25.5127H11.6C11.2686 25.5127 11 25.2441 11 24.9127V11.1127Z" fill="url(#paint0_linear_1211_2773)" fill-opacity="0.2"/>
<path d="M20 14.5127L21.4254 17.0873L24 18.5127L21.4254 19.9381L20 22.5127L18.5746 19.9381L16 18.5127L18.5746 17.0873L20 14.5127Z" fill="white"/>
</g>
<defs>
<filter id="filter0_i_1211_2773" x="0" y="0" width="40" height="40" filterUnits="userSpaceOnUse" color-interpolation-filters="sRGB">
<feFlood flood-opacity="0" result="BackgroundImageFix"/>
<feBlend mode="normal" in="SourceGraphic" in2="BackgroundImageFix" result="shape"/>
<feColorMatrix in="SourceAlpha" type="matrix" values="0 0 0 0 0 0 0 0 0 0 0 0 0 0 0 0 0 0 127 0" result="hardAlpha"/>
<feOffset/>
<feGaussianBlur stdDeviation="2"/>
<feComposite in2="hardAlpha" operator="arithmetic" k2="-1" k3="1"/>
<feColorMatrix type="matrix" values="0 0 0 0 1 0 0 0 0 1 0 0 0 0 1 0 0 0 0.16 0"/>
<feBlend mode="normal" in2="shape" result="effect1_innerShadow_1211_2773"/>
</filter>
<linearGradient id="paint0_linear_1211_2773" x1="11" y1="10.5127" x2="29" y2="29.4873" gradientUnits="userSpaceOnUse">
<stop stop-color="white"/>
<stop offset="1" stop-color="#1E1E1E"/>
</linearGradient>
</defs>
</svg>
